<?xml version="1.0" standalone="no"?>
<!DOCTYPE svg PUBLIC "-//W3C//DTD SVG 20010904//EN"
 "http://www.w3.org/TR/2001/REC-SVG-20010904/DTD/svg10.dtd">
<svg version="1.0" xmlns="http://www.w3.org/2000/svg"
 width="546.000000pt" height="546.000000pt" viewBox="0 0 546.000000 546.000000"
 preserveAspectRatio="xMidYMid meet">
<metadata>
Created by potrace 1.14, written by Peter Selinger 2001-2017
</metadata>
<g transform="translate(0.000000,546.000000) scale(0.100000,-0.100000)"
fill="#000000" stroke="none">
<path d="M1600 5434 c-36 -12 -78 -25 -95 -28 -16 -3 -84 -32 -149 -65 -66
-34 -126 -61 -135 -61 -9 0 -34 -16 -56 -36 -56 -50 -111 -77 -133 -65 -19 10
-144 -24 -217 -59 -55 -27 -168 -127 -180 -159 -5 -15 -24 -49 -42 -76 -29
-46 -31 -58 -37 -165 -8 -154 -27 -247 -58 -292 -14 -21 -29 -54 -32 -75 -4
-21 -24 -72 -45 -113 -36 -70 -56 -122 -66 -166 -14 -71 -69 -188 -109 -232
-37 -41 -73 -106 -80 -144 -13 -72 -42 -158 -67 -193 -15 -22 -30 -59 -34 -82
-4 -23 -15 -58 -25 -78 -15 -29 -18 -53 -15 -113 2 -43 -1 -102 -6 -132 -18
-113 -19 -163 -3 -224 20 -76 24 -142 12 -179 -7 -19 -6 -43 2 -75 6 -26 14
-89 17 -141 2 -53 11 -107 19 -123 8 -15 23 -72 34 -126 10 -55 28 -121 38
-148 16 -41 36 -117 48 -184 10 -56 33 -113 66 -164 21 -33 38 -64 38 -70 0
-6 16 -31 36 -56 85 -106 145 -193 161 -233 14 -36 54 -100 73 -117 3 -3 16
-19 28 -36 11 -17 37 -42 56 -55 19 -13 44 -40 56 -61 11 -20 38 -52 59 -70
21 -18 70 -71 109 -118 40 -47 98 -103 129 -125 32 -22 99 -80 150 -130 105
-103 153 -132 357 -210 145 -55 186 -68 274 -85 28 -5 69 -22 91 -38 23 -16
62 -35 88 -41 64 -16 144 -66 172 -106 12 -19 39 -41 59 -51 20 -9 70 -43 110
-75 l73 -57 72 5 c120 8 128 13 157 90 13 38 23 73 21 78 -9 23 -9 146 0 172
5 15 23 71 40 123 22 68 41 105 64 130 30 31 59 95 71 153 9 48 30 97 71 165
25 40 47 85 49 100 6 32 39 128 66 192 11 24 28 83 39 130 11 47 36 125 56
175 20 49 40 113 44 140 4 28 12 68 17 90 6 22 13 63 16 90 10 108 28 211 46
257 16 42 16 54 6 95 -11 41 -10 55 4 98 14 41 17 84 15 250 -2 175 -5 208
-24 260 -14 41 -20 82 -20 125 2 75 -26 180 -95 358 -25 64 -50 138 -54 163
-5 26 -33 85 -65 139 -32 51 -57 103 -57 116 0 12 -16 41 -34 63 -19 23 -54
75 -76 116 -24 43 -58 89 -81 107 -21 17 -61 63 -88 103 -28 39 -69 88 -93
107 -24 20 -74 66 -113 103 -70 67 -191 157 -255 190 -19 10 -48 32 -65 50
-16 18 -52 41 -80 51 -27 10 -82 44 -121 76 -40 32 -78 58 -85 58 -23 0 1 13
28 16 129 12 322 57 422 98 33 13 74 27 92 31 52 12 239 113 306 167 43 34 63
57 63 72 0 25 -27 81 -55 114 -24 27 -148 77 -243 97 -37 7 -107 30 -157 51
-174 71 -282 92 -468 91 -120 -1 -152 -4 -207 -23z"/>
</g>
</svg>
